<mxfile host="app.diagrams.net" modified="2022-05-05T14:15:44.734Z" agent="5.0 (X11; Linux x86_64) AppleWebKit/537.36 (KHTML, like Gecko) Chrome/101.0.4951.41 Safari/537.36" etag="mbIWyXgaS3y8c-QYSaJV" version="18.0.0" type="github">
  <diagram id="aG1t9R-15McpjbNqm39I" name="Page-1">
    <mxGraphModel dx="1350" dy="736" grid="1" gridSize="10" guides="1" tooltips="1" connect="1" arrows="1" fold="1" page="1" pageScale="1" pageWidth="827" pageHeight="1169" math="0" shadow="0">
      <root>
        <mxCell id="0" />
        <mxCell id="1" parent="0" />
        <mxCell id="RkaA5Hggt3micQ5uDcpL-1" value="" style="rounded=1;whiteSpace=wrap;html=1;" vertex="1" parent="1">
          <mxGeometry x="15" y="100" width="230" height="60" as="geometry" />
        </mxCell>
        <mxCell id="RkaA5Hggt3micQ5uDcpL-2" value="&lt;b&gt;&lt;font style=&quot;font-size: 14px;&quot;&gt;python-collector Job&lt;/font&gt;&lt;/b&gt;" style="text;html=1;strokeColor=none;fillColor=none;align=center;verticalAlign=middle;whiteSpace=wrap;rounded=0;" vertex="1" parent="1">
          <mxGeometry x="35" y="115" width="180" height="30" as="geometry" />
        </mxCell>
        <mxCell id="RkaA5Hggt3micQ5uDcpL-4" value="&lt;ul&gt;&lt;li&gt;In this Job, we are generating artifact to be used in ZutaDev-Pipeline Job.&lt;/li&gt;&lt;li style=&quot;text-align: left;&quot;&gt;also on succesful build this job will trigger ZutaDev-Pipeline Job&lt;/li&gt;&lt;/ul&gt;" style="text;html=1;strokeColor=none;fillColor=none;align=center;verticalAlign=middle;whiteSpace=wrap;rounded=0;fontSize=14;" vertex="1" parent="1">
          <mxGeometry x="240" y="115" width="530" height="30" as="geometry" />
        </mxCell>
        <mxCell id="RkaA5Hggt3micQ5uDcpL-5" value="" style="rounded=1;whiteSpace=wrap;html=1;fontSize=14;" vertex="1" parent="1">
          <mxGeometry x="15" y="240" width="230" height="60" as="geometry" />
        </mxCell>
        <mxCell id="RkaA5Hggt3micQ5uDcpL-6" value="&lt;b&gt;ZutaDev-Pipeline Job&lt;/b&gt;" style="text;html=1;strokeColor=none;fillColor=none;align=center;verticalAlign=middle;whiteSpace=wrap;rounded=0;fontSize=14;" vertex="1" parent="1">
          <mxGeometry x="55" y="255" width="160" height="30" as="geometry" />
        </mxCell>
        <mxCell id="RkaA5Hggt3micQ5uDcpL-7" value="&lt;ul&gt;&lt;li&gt;In this Job, we are build a java project using maven.&lt;/li&gt;&lt;li&gt;Scan the java-maven project for vulnerable dependencies and generate a report.&lt;/li&gt;&lt;li&gt;Build a Docker image.&lt;/li&gt;&lt;li&gt;Running an automation test.&amp;nbsp;&lt;/li&gt;&lt;li&gt;Running an Docker image of application on slave classic_sdc.&lt;/li&gt;&lt;li&gt;Testing a site.&lt;/li&gt;&lt;/ul&gt;" style="text;html=1;strokeColor=none;fillColor=none;align=left;verticalAlign=middle;whiteSpace=wrap;rounded=0;fontSize=14;" vertex="1" parent="1">
          <mxGeometry x="260" y="212.5" width="610" height="115" as="geometry" />
        </mxCell>
        <mxCell id="RkaA5Hggt3micQ5uDcpL-8" value="" style="shape=flexArrow;endArrow=classic;html=1;rounded=0;fontSize=14;entryX=0.5;entryY=0;entryDx=0;entryDy=0;exitX=0.5;exitY=1;exitDx=0;exitDy=0;" edge="1" parent="1" source="RkaA5Hggt3micQ5uDcpL-1" target="RkaA5Hggt3micQ5uDcpL-5">
          <mxGeometry width="50" height="50" relative="1" as="geometry">
            <mxPoint x="305" y="150" as="sourcePoint" />
            <mxPoint x="355" y="100" as="targetPoint" />
          </mxGeometry>
        </mxCell>
        <mxCell id="RkaA5Hggt3micQ5uDcpL-9" value="" style="rounded=1;whiteSpace=wrap;html=1;fontSize=14;" vertex="1" parent="1">
          <mxGeometry x="15" y="390" width="230" height="70" as="geometry" />
        </mxCell>
        <mxCell id="RkaA5Hggt3micQ5uDcpL-11" value="&lt;b&gt;upload-package-drive Job&lt;/b&gt;" style="text;html=1;strokeColor=none;fillColor=none;align=center;verticalAlign=middle;whiteSpace=wrap;rounded=0;fontSize=14;" vertex="1" parent="1">
          <mxGeometry x="40" y="410" width="190" height="30" as="geometry" />
        </mxCell>
        <mxCell id="RkaA5Hggt3micQ5uDcpL-12" value="&lt;ul&gt;&lt;li&gt;In this Job, we are running docker save command to wrap up the production package on stable build with naming convention as zuta_latest_(build_number).tar.gz .&lt;/li&gt;&lt;li&gt;And upload to SDC_VERSIONS Directory on Google Drive as version control.&lt;/li&gt;&lt;li&gt;along with that we are also saving production package at /var/lib/jenkins/workspace/upload-package-drive directory on slave classic_sdc.&lt;/li&gt;&lt;li&gt;Manual Trigger&lt;/li&gt;&lt;/ul&gt;" style="text;html=1;strokeColor=none;fillColor=none;align=left;verticalAlign=middle;whiteSpace=wrap;rounded=0;fontSize=14;" vertex="1" parent="1">
          <mxGeometry x="260" y="360" width="560" height="140" as="geometry" />
        </mxCell>
        <mxCell id="RkaA5Hggt3micQ5uDcpL-13" value="" style="rounded=1;whiteSpace=wrap;html=1;fontSize=14;" vertex="1" parent="1">
          <mxGeometry x="20" y="555" width="230" height="65" as="geometry" />
        </mxCell>
        <mxCell id="RkaA5Hggt3micQ5uDcpL-14" value="&lt;ul&gt;&lt;li&gt;In this Job, we are taking user&amp;nbsp;input as a build number.&lt;/li&gt;&lt;li&gt;copy production package based on input from /var/lib/jenkins/workspace/upload-package-drive directory to /var/lib/jenkins/workspace/deploy-package-to-production.&lt;/li&gt;&lt;li&gt;From /var/lib/jenkins/workspace/deploy-package-to-production we will update the package to SDC Directory on Google Drive to be ready for user downloads.&lt;br&gt;&lt;/li&gt;&lt;li&gt;Manual Trigger&lt;/li&gt;&lt;/ul&gt;" style="text;html=1;strokeColor=none;fillColor=none;align=left;verticalAlign=middle;whiteSpace=wrap;rounded=0;fontSize=14;" vertex="1" parent="1">
          <mxGeometry x="260" y="520" width="580" height="140" as="geometry" />
        </mxCell>
        <mxCell id="RkaA5Hggt3micQ5uDcpL-15" value="&lt;b&gt;deploy-package-to-production Job&lt;/b&gt;" style="text;html=1;strokeColor=none;fillColor=none;align=center;verticalAlign=middle;whiteSpace=wrap;rounded=0;fontSize=14;" vertex="1" parent="1">
          <mxGeometry x="26" y="574.5" width="230" height="30" as="geometry" />
        </mxCell>
      </root>
    </mxGraphModel>
  </diagram>
</mxfile>
